Coordinates
version=1
nRows=17
nColumns=33
inDegrees=yes

Units are S.I. units (second, meters, Newtons, ...)
Angles are in degrees.

endheader
time	ground_thorax_rot_x	ground_thorax_rot_y	ground_thorax_rot_z	ground_thorax_tx	ground_thorax_ty	ground_thorax_tz	clav_prot_r	clav_elev_r	scapula_abduction_r	scapula_elevation_r	scapula_upward_rot_r	scapula_winging_r	shoulder_elv_r	plane_of_elev_r	axial_rot_r	elbow_flexion_r	pro_sup_r	wrist_flex_r	wrist_dev_r	clav_prot_l	clav_elev_l	scapula_abduction_l	scapula_elevation_l	scapula_upward_rot_l	scapula_winging_l	shoulder_elv_l	plane_of_elev_l	axial_rot_l	elbow_flexion_l	pro_sup_l	wrist_flex_l	wrist_dev_l	
2.2600	-40.106860	-3.149276	3.473147	-150.448498	891.035108	-5.524535	2.213776	-45.000000	42.324982	-45.000000	9.314773	2050.639802	72.518590	22.578962	-180.000000	724.701362	301.640922	23.548074	7.229718	15.770145	38.957351	-41.141140	-45.000000	-43.675667	-633.504482	-3526.546876	21.523203	-40.558580	-346.237931	50.464663	4.557893	-21.781775	
2.2700	-40.188075	-2.877485	3.129807	-148.065768	892.835979	-5.590659	2.080490	-45.000000	42.607541	-45.000000	10.646697	2050.744236	72.677721	22.620615	-180.000000	724.622532	301.404650	23.693437	7.279256	15.679425	39.079738	-41.398636	-45.000000	-43.103339	-633.343458	-3526.432568	21.591775	-40.209849	-346.202841	50.451046	4.534521	-21.796395	
2.2800	-40.272608	-2.607146	2.780439	-145.577030	894.493647	-5.661666	1.923257	-45.000000	42.915431	-45.000000	12.073131	2050.832917	72.838938	22.650368	-180.000000	724.548312	300.984227	23.813684	7.365425	15.631016	39.226289	-41.645969	-45.000000	-42.451540	-633.187892	-3526.345352	21.651460	-39.874199	-346.194627	50.312774	4.527762	-21.810457	
2.2900	-40.362915	-2.338476	2.424875	-142.984413	895.988445	-5.735918	1.735282	-45.000000	43.247795	-45.000000	13.598072	2050.906103	72.998573	22.663295	-180.000000	724.483310	300.382213	23.904198	7.487422	15.623180	39.402238	-41.892087	-45.000000	-41.730306	-633.036097	-3526.284713	21.697910	-39.549739	-346.205479	50.037784	4.539967	-21.830036	
2.3000	-40.457006	-2.076883	2.071922	-140.289175	897.303393	-5.811692	1.505724	-45.000000	43.618818	-45.000000	15.268708	2050.951664	73.176971	22.649218	-180.000000	724.432465	299.607388	23.951513	7.653125	15.690216	39.609124	-42.138979	-45.000000	-40.979488	-632.894369	-3526.248062	21.743253	-39.220405	-346.245467	49.617158	4.564210	-21.843623	
2.3100	-40.557339	-1.816784	1.720074	-137.491872	898.423229	-5.887040	1.244296	-45.000000	43.994943	-45.000000	17.006185	2050.987631	73.345633	22.618549	-180.000000	724.396384	298.656755	23.968951	7.850664	15.787312	39.840641	-42.392656	-45.000000	-40.191150	-632.762722	-3526.233089	21.780001	-38.901103	-346.306281	49.033351	4.613071	-21.864321	
2.3200	-40.660308	-1.564815	1.382807	-134.592789	899.333398	-5.959663	0.985254	-45.000000	44.340743	-45.000000	18.695391	2051.026177	73.477312	22.595057	-180.000000	724.371474	297.548968	23.978042	8.061807	15.859573	40.073477	-42.643698	-45.000000	-39.376354	-632.643193	-3526.242845	21.822202	-38.588935	-346.393811	48.287860	4.696521	-21.893168	
2.3300	-40.768062	-1.310269	1.061140	-131.592241	900.018916	-6.026877	0.702187	-45.000000	44.623453	-45.000000	20.326164	2051.087589	73.566893	22.564437	-180.000000	724.361417	296.275522	23.970986	8.291443	15.922720	40.307280	-42.913708	-45.000000	-38.546147	-632.540551	-3526.269036	21.851849	-38.283784	-346.494009	47.357712	4.812903	-21.933225	
2.3400	-40.874078	-1.065398	0.770612	-128.491299	900.463700	-6.085638	0.430014	-45.000000	44.817328	-45.000000	21.793487	2051.176448	73.590981	22.551213	-180.000000	724.360009	294.852902	23.966182	8.522672	15.937612	40.523108	-43.190364	-45.000000	-37.723357	-632.455327	-3526.319759	21.890820	-37.979332	-346.616819	46.245282	4.972536	-21.983693	
2.3500	-40.978077	-0.819161	0.506510	-125.292129	900.650364	-6.132736	0.109467	-45.000000	44.932608	-45.000000	23.196688	2051.290366	73.579977	22.524577	-180.000000	724.374025	293.251618	23.929672	8.780003	15.987947	40.738777	-43.492438	-45.000000	-36.923326	-632.395899	-3526.388217	21.921859	-37.674682	-346.754130	44.909758	5.164544	-22.036736	
2.3600	-41.076035	-0.582612	0.272630	-121.997522	900.560931	-6.165037	-0.224443	-45.000000	44.981191	-45.000000	24.476601	2051.418879	73.517157	22.502302	-180.000000	724.401176	291.468571	23.872846	9.054043	16.035912	40.944258	-43.798672	-45.000000	-36.147049	-632.364720	-3526.479233	21.958071	-37.365134	-346.911728	43.334960	5.403154	-22.094632	
2.3700	-41.168860	-0.350667	0.064332	-118.610804	900.177978	-6.179799	-0.624392	-45.000000	44.998432	-45.000000	25.763016	2051.547197	73.441124	22.449137	-180.000000	724.452329	289.461524	23.756630	9.374819	16.166662	41.159387	-44.120616	-44.999999	-35.407670	-632.372305	-3526.585181	21.980966	-37.050112	-347.086037	41.470702	5.677277	-22.145039	
2.3800	-41.254260	-0.148961	-0.111838	-115.135547	899.486282	-6.174890	-1.014272	-45.000000	45.000000	-45.000000	26.937411	2051.665774	73.315315	22.394713	-180.000000	724.519777	287.242524	23.609610	9.717749	16.282962	41.364974	-44.408880	-44.999999	-34.685322	-632.422100	-3526.712218	22.011127	-36.729531	-347.286724	39.323843	6.010066	-22.193387	
2.3900	-41.332156	0.038805	-0.277037	-111.575455	898.474356	-6.148944	-1.423971	-45.000000	45.000000	-45.000000	28.080251	2051.766006	73.150764	22.328209	-180.000000	724.614372	284.778321	23.416074	10.098386	16.405000	41.562101	-44.654806	-44.999998	-33.967540	-632.537379	-3526.843066	22.033737	-36.402002	-347.510395	36.866345	6.403478	-22.232781	
2.4000	-41.402397	0.197583	-0.430256	-107.933662	897.135857	-6.101369	-1.798668	-45.000000	45.000000	-45.000000	29.094646	2051.843613	72.913411	22.275934	-180.000000	724.735925	282.064140	23.202933	10.496566	16.445447	41.736333	-44.824372	-44.999996	-33.231419	-632.713551	-3526.988377	22.067782	-36.065621	-347.765551	34.110630	6.878739	-22.262952	
2.4100	-41.465026	0.315058	-0.552540	-104.213279	895.470485	-6.032239	-2.159769	-45.000000	45.000000	-45.000000	30.015556	2051.903305	72.627145	22.216604	-180.000000	724.885989	279.102862	22.943304	10.917375	16.468848	41.905153	-44.934399	-44.999992	-32.513436	-632.947153	-3527.145937	22.102735	-35.745329	-348.039610	31.102660	7.409622	-22.268525	
2.4200	-41.520987	0.373214	-0.629406	-100.417456	893.484153	-5.942176	-2.474533	-45.000000	45.000000	-45.000000	30.774968	2051.943479	72.278446	22.159153	-180.000000	725.056393	275.923416	22.649874	11.340055	16.443835	42.065627	-44.982758	-44.999986	-31.819741	-633.220578	-3527.330246	22.150168	-35.437543	-348.326427	27.933527	7.988748	-22.242703	
